<svg xmlns="http://www.w3.org/2000/svg" viewBox="0 0 420 320">
  <g fill="none" transform="translate(68 30)">
    <path fill="#FD7730" d="M128.180391,18.0375177 C131.737656,20.6580227 132.49705,25.6660948 129.876545,29.2233597 C127.25604,32.7806247 122.247968,33.5400186 118.690703,30.9195136 C98.4044173,15.97536 91.3359584,13.8801515 84.2695783,18.552202 C74.5091498,25.0054657 73.0848123,45.7859878 80.1413006,75.8766135 C85.7014339,99.5864082 96.4438033,127.869362 105.042548,144.35736 C116.803813,166.909456 130.144613,188.760963 144.890079,206.846104 C165.088082,231.618719 183.372207,243.029545 197.484227,238.398781 C215.281205,232.558823 206.061743,168.170445 180.442403,117.146372 C178.459849,113.197871 180.053564,108.389801 184.002065,106.407247 C187.950566,104.424693 192.758636,106.018408 194.74119,109.966909 C207.129412,134.639579 217.330274,166.240605 221.092328,192.514643 C223.169751,207.023287 223.278011,219.611303 221.133933,229.566396 C218.508186,241.757906 212.390688,250.346732 202.472804,253.601219 C190.227157,257.619545 177.373141,254.94517 164.401203,246.849594 C153.825357,240.24938 143.195359,230.087386 132.489484,216.956755 C116.912997,197.852375 103.076986,175.189739 90.8558893,151.755921 C81.6562603,134.115735 70.4389626,104.58237 64.5638996,79.5296365 C60.8039993,63.4964842 59.1129595,49.2721204 59.9248006,37.4276793 C60.93123,22.7442713 65.8014522,11.5817723 75.4452655,5.20561054 C83.0140304,0.201400264 90.7767942,-1.01149921 99.6369769,1.6148059 C107.223948,3.86371002 115.770146,8.89535118 128.180391,18.0375177 Z"/>
    <path fill="#0B8" d="M110.622367,217.283104 C114.109855,214.570428 119.136081,215.198537 121.848756,218.686025 C124.561432,222.173513 123.933323,227.199738 120.445835,229.912414 C109.044467,238.780751 98.3269801,245.013869 88.7430484,248.032103 C77.013734,251.725976 66.6376902,250.672628 58.9378688,243.780185 C49.3350723,235.184307 45.2241408,222.715215 45.7491464,207.433399 C46.1771764,194.974341 49.6627228,180.687496 55.6812452,164.85062 C64.4378797,141.808797 77.1462931,118.495142 91.3300262,96.1944527 C102.007061,79.407247 121.975057,54.9261 140.733829,37.3117794 C152.738996,26.0390341 164.212136,17.4623687 174.875644,12.2432232 C188.095063,5.77311269 200.197182,4.40959926 210.541006,9.5733057 C218.700876,13.6467674 223.660715,20.5680028 225.78673,30.4046102 C227.585387,38.7266037 227.499234,49.4193139 225.795811,64.6592177 C225.30502,69.050152 221.347599,72.2118425 216.956665,71.721051 C212.565731,71.2302595 209.40404,67.2728388 209.894832,62.8819045 C212.758566,37.2611104 210.651296,27.5112339 203.394675,23.8886805 C192.925771,18.6625334 174.217142,27.8192819 151.68614,48.9756929 C133.932922,65.645807 114.81035,89.0904487 104.830698,104.781179 C91.1806425,126.242782 78.9270817,148.722007 70.6376227,170.534525 C59.2829105,200.412816 58.5429079,221.952746 69.6092772,231.858732 C75.8148335,237.413594 90.8155258,232.689478 110.622367,217.283104 Z"/>
    <path fill="#FFD35C" d="M41.0532436,146.378777 C44.9160722,148.523476 46.3088912,153.39354 44.1641919,157.256369 C42.0194925,161.119197 37.1494288,162.512016 33.2866002,160.367317 C22.2847107,154.258906 16.5328987,150.613517 11.084092,145.622451 C2.75611907,137.99409 -1.34267189,129.3401 0.541006813,119.49641 C2.95743746,106.868675 11.346685,96.9755005 24.407312,89.6641366 C35.0642799,83.6983457 48.7657015,79.4590347 65.053072,76.6172989 C88.5374601,72.5198648 112.713641,71.6798003 140.715888,72.3921652 C160.435342,72.8938196 192.785957,77.6666818 218.349262,84.9038356 C234.645687,89.5174699 248.297018,95.0421124 258.545642,101.560092 C271.270013,109.652613 278.888652,119.366911 279.794011,130.944678 C280.491518,139.864421 277.469335,147.573932 270.802877,154.312636 C265.116425,160.060713 256.719373,165.257266 244.252165,171.091545 C240.250397,172.964253 235.488193,171.238308 233.615486,167.23654 C231.742779,163.234772 233.468723,158.472568 237.470492,156.599861 C258.039694,146.974092 264.488858,140.455036 263.842708,132.19204 C262.934454,120.57726 244.735005,109.002667 213.990844,100.298776 C189.736787,93.4322796 158.713073,88.8551823 140.308987,88.3869904 C113.289777,87.6996335 89.9820857,88.50952 67.8031249,92.3791899 C37.2483175,97.710234 19.0509398,107.897161 16.2558682,122.50359 C14.9504383,129.32548 22.0479792,135.826774 41.0532436,146.378777 Z"/>
    <circle cx="142" cy="130" r="16" fill="#444"/>
  </g>
</svg>
